<?xml version="1.0"?>
<svg xmlns="http://www.w3.org/2000/svg" id="Capa_1" enable-background="new 0 0 512 512" height="512px" viewBox="0 0 512 512" width="512px" class=""><g><g><circle cx="256" cy="256" fill="#8fe26a" r="256" data-original="#8FE26A" class="" style="fill:#C7ECEE" data-old_color="#8fe26a"/><path d="m511.129 277.1-135.28-135.28-228.573 241.021 128.413 128.413c125.215-9.524 225.238-109.13 235.44-234.154z" fill="#58b354" data-original="#58B354" class="" style="fill:#222F3E" data-old_color="#58b354"/><g><g><path d="m147.276 165.219h217.622v217.622h-217.622z" fill="#fff" data-original="#FFF" class="" data-old_color="#fff" style="fill:#FFFFFF"/><path d="m385.046 194.022c-6.998 0-13.756 1.033-20.149 2.926v-31.728h-108.81v217.622h108.811v-49.547c6.392 1.893 13.151 2.926 20.149 2.926 39.204 0 71.099-31.895 71.099-71.099s-31.895-71.1-71.1-71.1zm0 113.197c-7.295 0-14.16-1.867-20.149-5.145v-73.907c5.988-3.278 12.854-5.145 20.149-5.145 23.213 0 42.099 18.886 42.099 42.099s-18.886 42.098-42.099 42.098z" fill="#dceaec" data-original="#DCEAEC" class="" style="fill:#DCEAEC"/><g><path d="m288.112 266.325c0 30.849-32.025 55.857-32.025 55.857s-32.025-25.008-32.025-55.857 32.025-55.857 32.025-55.857 32.025 25.008 32.025 55.857z" fill="#f6df5a" data-original="#F6DF5A" class="" style="fill:#FFFFFF" data-old_color="#f6df5a"/><path d="m288.112 266.325c0-30.849-32.025-55.857-32.025-55.857v111.715c0-.001 32.025-25.009 32.025-55.858z" fill="#edb943" data-original="#EDB943" class="active-path" style="fill:#DCEAEC" data-old_color="#edb943"/></g></g><path d="m136.353 141.833h239.467v29h-239.467z" fill="#7c83e7" data-original="#7C83E7" class="" style="fill:#5F7D95" data-old_color="#7c83e7"/><path d="m256.087 141.833h119.733v29h-119.733z" fill="#515bdf" data-original="#515BDF" class="" style="fill:#5F7D95" data-old_color="#515bdf"/></g></g></g> </svg>
